<svg width="24" height="24" viewBox="0 0 24 24" fill="none" xmlns="http://www.w3.org/2000/svg">
<path d="M12.0017 24.0035C18.6301 24.0035 24.0035 18.6301 24.0035 12.0017C24.0035 5.37336 18.6301 0 12.0017 0C5.37336 0 0 5.37336 0 12.0017C0 18.6301 5.37336 24.0035 12.0017 24.0035Z" fill="#FF0002"/>
<path d="M17.9572 10.0196C17.5961 9.64464 17.0788 9.44328 16.4504 9.44328C15.6693 9.44328 15.0652 9.76268 14.7181 10.3563V7.39844H12.9023V15.498H14.7181V12.6511C14.7181 11.9846 14.8569 11.561 15.0583 11.3111C15.2596 11.0611 15.5339 10.9639 15.8359 10.9639C16.1033 10.9639 16.315 11.0472 16.4609 11.2034C16.6067 11.3631 16.6935 11.6062 16.6935 11.9464V15.4945H18.5092V11.5923C18.5092 10.9292 18.3148 10.3911 17.9537 10.0161L17.9572 10.0196Z" fill="white"/>
<path d="M9.84107 9.44328C9.05993 9.44328 8.45585 9.76268 8.10868 10.3563V7.39844H6.29297V15.498H8.10868V12.6511C8.10868 11.9846 8.24755 11.561 8.44891 11.3111C8.65027 11.0611 8.92453 10.9639 9.22657 10.9639C9.49389 10.9639 9.70567 11.0472 9.85148 11.2034C9.99729 11.3631 10.0841 11.6062 10.0841 11.9464V15.4945H11.8998V11.5923C11.8998 10.9292 11.7054 10.3911 11.3443 10.0161C10.9833 9.64117 10.466 9.43981 9.8376 9.43981L9.84107 9.44328Z" fill="white"/>
</svg>